<svg width="879" height="151" viewBox="0 0 879 151" fill="none" xmlns="http://www.w3.org/2000/svg">
<path d="M1.33439e-05 40.0601C1.49476e-05 30.7004 10.0061 24.919 17.8711 29.7346L47.5421 47.9017C54.6505 52.2539 59 60.0932 59 68.5526V89.4475C59 97.907 54.6505 105.746 47.5421 110.099L17.871 128.265C10.006 133.081 -1.60362e-06 127.3 0 117.94L1.33439e-05 40.0601Z" fill="#FA776C"/>
<path d="M122.917 7.00002C129.157 7.00002 132.336 14.6344 128 19.2041L112.362 35.6805C107.923 40.3584 101.809 43 95.4208 43H65.9944C61.7237 43 57.5333 41.8178 53.8713 39.5798L22.4442 20.3739C16.2965 16.6169 18.9117 7 26.0811 7L122.917 7.00002Z" fill="#624CF5"/>
<path d="M122.917 151C129.157 151 132.336 143.366 128 138.796L112.362 122.319C107.923 117.642 101.809 115 95.4208 115H65.9944C61.7237 115 57.5333 116.182 53.8713 118.42L22.4442 137.626C16.2965 141.383 18.9117 151 26.0811 151H122.917Z" fill="#624CF5"/>
<path d="M101 79C101 69.0589 93.165 61 83.5 61C73.835 61 66 69.0589 66 79C66 88.9411 73.835 97 83.5 97C93.165 97 101 88.9411 101 79Z" fill="#FA776C"/>
<path d="M233.227 63.5H213.318C212.955 60.9242 212.212 58.6364 211.091 56.6364C209.97 54.6061 208.53 52.8788 206.773 51.4545C205.015 50.0303 202.985 48.9394 200.682 48.1818C198.409 47.4242 195.939 47.0455 193.273 47.0455C188.455 47.0455 184.258 48.2424 180.682 50.6364C177.106 53 174.333 56.4545 172.364 61C170.394 65.5151 169.409 71 169.409 77.4545C169.409 84.0909 170.394 89.6667 172.364 94.1818C174.364 98.697 177.152 102.106 180.727 104.409C184.303 106.712 188.439 107.864 193.136 107.864C195.773 107.864 198.212 107.515 200.455 106.818C202.727 106.121 204.742 105.106 206.5 103.773C208.258 102.409 209.712 100.758 210.864 98.8182C212.045 96.8788 212.864 94.6667 213.318 92.1818L233.227 92.2727C232.712 96.5455 231.424 100.667 229.364 104.636C227.333 108.576 224.591 112.106 221.136 115.227C217.712 118.318 213.621 120.773 208.864 122.591C204.136 124.379 198.788 125.273 192.818 125.273C184.515 125.273 177.091 123.394 170.545 119.636C164.03 115.879 158.879 110.439 155.091 103.318C151.333 96.197 149.455 87.5758 149.455 77.4545C149.455 67.303 151.364 58.6667 155.182 51.5455C159 44.4242 164.182 39 170.727 35.2727C177.273 31.5151 184.636 29.6364 192.818 29.6364C198.212 29.6364 203.212 30.3939 207.818 31.9091C212.455 33.4242 216.561 35.6364 220.136 38.5454C223.712 41.4242 226.621 44.9545 228.864 49.1364C231.136 53.3182 232.591 58.1061 233.227 63.5ZM266.341 30.9091V124H246.977V30.9091H266.341ZM326.625 94.2727V54.1818H345.989V124H327.398V111.318H326.67C325.095 115.409 322.473 118.697 318.807 121.182C315.17 123.667 310.731 124.909 305.489 124.909C300.822 124.909 296.716 123.848 293.17 121.727C289.625 119.606 286.852 116.591 284.852 112.682C282.883 108.773 281.883 104.091 281.852 98.6364V54.1818H301.216V95.1818C301.246 99.303 302.352 102.561 304.534 104.955C306.716 107.348 309.64 108.545 313.307 108.545C315.64 108.545 317.822 108.015 319.852 106.955C321.883 105.864 323.519 104.258 324.761 102.136C326.034 100.015 326.655 97.3939 326.625 94.2727ZM361.841 124V30.9091H381.205V65.9091H381.795C382.644 64.0303 383.871 62.1212 385.477 60.1818C387.114 58.2121 389.235 56.5758 391.841 55.2727C394.477 53.9394 397.75 53.2727 401.659 53.2727C406.75 53.2727 411.447 54.6061 415.75 57.2727C420.053 59.9091 423.492 63.8939 426.068 69.2273C428.644 74.5303 429.932 81.1818 429.932 89.1818C429.932 96.9697 428.674 103.545 426.159 108.909C423.674 114.242 420.28 118.288 415.977 121.045C411.705 123.773 406.917 125.136 401.614 125.136C397.856 125.136 394.659 124.515 392.023 123.273C389.417 122.03 387.28 120.47 385.614 118.591C383.947 116.682 382.674 114.758 381.795 112.818H380.932V124H361.841ZM380.795 89.0909C380.795 93.2424 381.371 96.8636 382.523 99.9545C383.674 103.045 385.341 105.455 387.523 107.182C389.705 108.879 392.356 109.727 395.477 109.727C398.629 109.727 401.295 108.864 403.477 107.136C405.659 105.379 407.311 102.955 408.432 99.8636C409.583 96.7424 410.159 93.1515 410.159 89.0909C410.159 85.0606 409.598 81.5151 408.477 78.4545C407.356 75.3939 405.705 73 403.523 71.2727C401.341 69.5455 398.659 68.6818 395.477 68.6818C392.326 68.6818 389.659 69.5151 387.477 71.1818C385.326 72.8485 383.674 75.2121 382.523 78.2727C381.371 81.3333 380.795 84.9394 380.795 89.0909ZM500.943 74.0909L483.216 75.1818C482.913 73.6667 482.261 72.303 481.261 71.0909C480.261 69.8485 478.943 68.8636 477.307 68.1364C475.701 67.3788 473.777 67 471.534 67C468.534 67 466.004 67.6364 463.943 68.9091C461.883 70.1515 460.852 71.8182 460.852 73.9091C460.852 75.5758 461.519 76.9848 462.852 78.1364C464.186 79.2879 466.473 80.2121 469.716 80.9091L482.352 83.4545C489.14 84.8485 494.201 87.0909 497.534 90.1818C500.867 93.2727 502.534 97.3333 502.534 102.364C502.534 106.939 501.186 110.955 498.489 114.409C495.822 117.864 492.155 120.561 487.489 122.5C482.852 124.409 477.504 125.364 471.443 125.364C462.201 125.364 454.837 123.439 449.352 119.591C443.898 115.712 440.701 110.439 439.761 103.773L458.807 102.773C459.383 105.591 460.777 107.742 462.989 109.227C465.201 110.682 468.034 111.409 471.489 111.409C474.883 111.409 477.61 110.758 479.67 109.455C481.761 108.121 482.822 106.409 482.852 104.318C482.822 102.561 482.08 101.121 480.625 100C479.17 98.8485 476.928 97.9697 473.898 97.3636L461.807 94.9545C454.989 93.5909 449.913 91.2273 446.58 87.8636C443.277 84.5 441.625 80.2121 441.625 75C441.625 70.5151 442.837 66.6515 445.261 63.4091C447.716 60.1667 451.155 57.6667 455.58 55.9091C460.034 54.1515 465.246 53.2727 471.216 53.2727C480.034 53.2727 486.973 55.1364 492.034 58.8636C497.125 62.5909 500.095 67.6667 500.943 74.0909ZM514.727 150.182V54.1818H533.818V65.9091H534.682C535.53 64.0303 536.758 62.1212 538.364 60.1818C540 58.2121 542.121 56.5758 544.727 55.2727C547.364 53.9394 550.636 53.2727 554.545 53.2727C559.636 53.2727 564.333 54.6061 568.636 57.2727C572.939 59.9091 576.379 63.8939 578.955 69.2273C581.53 74.5303 582.818 81.1818 582.818 89.1818C582.818 96.9697 581.561 103.545 579.045 108.909C576.561 114.242 573.167 118.288 568.864 121.045C564.591 123.773 559.803 125.136 554.5 125.136C550.742 125.136 547.545 124.515 544.909 123.273C542.303 122.03 540.167 120.47 538.5 118.591C536.833 116.682 535.561 114.758 534.682 112.818H534.091V150.182H514.727ZM533.682 89.0909C533.682 93.2424 534.258 96.8636 535.409 99.9545C536.561 103.045 538.227 105.455 540.409 107.182C542.591 108.879 545.242 109.727 548.364 109.727C551.515 109.727 554.182 108.864 556.364 107.136C558.545 105.379 560.197 102.955 561.318 99.8636C562.47 96.7424 563.045 93.1515 563.045 89.0909C563.045 85.0606 562.485 81.5151 561.364 78.4545C560.242 75.3939 558.591 73 556.409 71.2727C554.227 69.5455 551.545 68.6818 548.364 68.6818C545.212 68.6818 542.545 69.5151 540.364 71.1818C538.212 72.8485 536.561 75.2121 535.409 78.2727C534.258 81.3333 533.682 84.9394 533.682 89.0909ZM615.091 83.6364V124H595.727V30.9091H614.545V66.5H615.364C616.939 62.3788 619.485 59.1515 623 56.8182C626.515 54.4545 630.924 53.2727 636.227 53.2727C641.076 53.2727 645.303 54.3333 648.909 56.4545C652.545 58.5455 655.364 61.5606 657.364 65.5C659.394 69.4091 660.394 74.0909 660.364 79.5455V124H641V83C641.03 78.697 639.939 75.3485 637.727 72.9545C635.545 70.5606 632.485 69.3636 628.545 69.3636C625.909 69.3636 623.576 69.9242 621.545 71.0455C619.545 72.1667 617.97 73.803 616.818 75.9545C615.697 78.0758 615.121 80.6364 615.091 83.6364ZM707.42 125.364C700.239 125.364 694.057 123.909 688.875 121C683.723 118.061 679.754 113.909 676.966 108.545C674.178 103.152 672.784 96.7727 672.784 89.4091C672.784 82.2273 674.178 75.9242 676.966 70.5C679.754 65.0758 683.678 60.8485 688.739 57.8182C693.83 54.7879 699.799 53.2727 706.648 53.2727C711.254 53.2727 715.542 54.0152 719.511 55.5C723.511 56.9545 726.996 59.1515 729.966 62.0909C732.966 65.0303 735.299 68.7273 736.966 73.1818C738.633 77.6061 739.466 82.7879 739.466 88.7273V94.0455H680.511V82.0455H721.239C721.239 79.2576 720.633 76.7879 719.42 74.6364C718.208 72.4848 716.527 70.803 714.375 69.5909C712.254 68.3485 709.784 67.7273 706.966 67.7273C704.027 67.7273 701.42 68.4091 699.148 69.7727C696.905 71.1061 695.148 72.9091 693.875 75.1818C692.602 77.4242 691.951 79.9242 691.92 82.6818V94.0909C691.92 97.5455 692.557 100.53 693.83 103.045C695.133 105.561 696.966 107.5 699.33 108.864C701.693 110.227 704.496 110.909 707.739 110.909C709.89 110.909 711.86 110.606 713.648 110C715.436 109.394 716.966 108.485 718.239 107.273C719.511 106.061 720.481 104.576 721.148 102.818L739.057 104C738.148 108.303 736.284 112.061 733.466 115.273C730.678 118.455 727.072 120.939 722.648 122.727C718.254 124.485 713.178 125.364 707.42 125.364ZM752.102 124V54.1818H770.875V66.3636H771.602C772.875 62.0303 775.011 58.7576 778.011 56.5455C781.011 54.303 784.466 53.1818 788.375 53.1818C789.345 53.1818 790.39 53.2424 791.511 53.3636C792.633 53.4848 793.617 53.6515 794.466 53.8636V71.0455C793.557 70.7727 792.299 70.5303 790.693 70.3182C789.087 70.1061 787.617 70 786.284 70C783.436 70 780.89 70.6212 778.648 71.8636C776.436 73.0758 774.678 74.7727 773.375 76.9545C772.102 79.1364 771.466 81.6515 771.466 84.5V124H752.102ZM833.045 125.364C825.864 125.364 819.682 123.909 814.5 121C809.348 118.061 805.379 113.909 802.591 108.545C799.803 103.152 798.409 96.7727 798.409 89.4091C798.409 82.2273 799.803 75.9242 802.591 70.5C805.379 65.0758 809.303 60.8485 814.364 57.8182C819.455 54.7879 825.424 53.2727 832.273 53.2727C836.879 53.2727 841.167 54.0152 845.136 55.5C849.136 56.9545 852.621 59.1515 855.591 62.0909C858.591 65.0303 860.924 68.7273 862.591 73.1818C864.258 77.6061 865.091 82.7879 865.091 88.7273V94.0455H806.136V82.0455H846.864C846.864 79.2576 846.258 76.7879 845.045 74.6364C843.833 72.4848 842.152 70.803 840 69.5909C837.879 68.3485 835.409 67.7273 832.591 67.7273C829.652 67.7273 827.045 68.4091 824.773 69.7727C822.53 71.1061 820.773 72.9091 819.5 75.1818C818.227 77.4242 817.576 79.9242 817.545 82.6818V94.0909C817.545 97.5455 818.182 100.53 819.455 103.045C820.758 105.561 822.591 107.5 824.955 108.864C827.318 110.227 830.121 110.909 833.364 110.909C835.515 110.909 837.485 110.606 839.273 110C841.061 109.394 842.591 108.485 843.864 107.273C845.136 106.061 846.106 104.576 846.773 102.818L864.682 104C863.773 108.303 861.909 112.061 859.091 115.273C856.303 118.455 852.697 120.939 848.273 122.727C843.879 124.485 838.803 125.364 833.045 125.364Z" fill="black"/>
</svg>
